<svg xmlns="http://www.w3.org/2000/svg" viewBox="0 0 63.84 57.74"><defs><style>.cls-1{fill:none;stroke:#a9a9a9;stroke-width:2px;}.cls-1,.cls-2{stroke-miterlimit:10;}.cls-2{fill:#a9a9a9;stroke:#fff;stroke-width:3px;}.cls-3{fill:#fff;}</style></defs><title>Asset 1</title><g id="Layer_2" data-name="Layer 2"><g id="Layer_1-2" data-name="Layer 1"><path class="cls-1" d="M46.77,5H3.47A2.3,2.3,0,0,0,1,7V54.66a2.3,2.3,0,0,0,2.47,2.08h43.3a2.3,2.3,0,0,0,2.47-2.08V7A2.3,2.3,0,0,0,46.77,5Z"/><path class="cls-2" d="M25.73,47.5l-8.84.35a.42.42,0,0,1-.44-.42l.18-9.72.35-.35L51.66,2.23a2.47,2.47,0,0,1,3.49,0l6.46,6.38a2.47,2.47,0,0,1,0,3.49L27.39,46.76A2.48,2.48,0,0,1,25.73,47.5Z"/><rect class="cls-3" x="50.76" y="6.19" width="2.64" height="11.19" transform="translate(7.25 40.8) rotate(-45.66)"/><rect class="cls-3" x="23.05" y="34.68" width="2" height="11.25" transform="translate(-21.59 29.34) rotate(-45.66)"/><line class="cls-1" x1="16.5" y1="45.68" x2="4.88" y2="45.68"/></g></g></svg>