<svg xmlns="http://www.w3.org/2000/svg" viewBox="0 0 369.18 352.19"><defs><style>.cls-1{fill:#fff;}.cls-2{fill:none;stroke:#fff;stroke-miterlimit:10;stroke-width:3px;}</style></defs><title>Heart</title><g id="Layer_2" data-name="Layer 2"><g id="Layer_1-2" data-name="Layer 1"><path class="cls-1" d="M34.25,137.9H24.43l-.32.68,14.54,15.51-.46.49L22.78,140.13l-.69.17-.6,11.26H21V140.29l-.71-.25L4.63,154.65l-.49-.5,14.61-15.51-.13-.68H8.37v-1H18.54l.28-.75L4.18,120.65l.5-.5,15.47,14.48.72-.27V123.08h.6l.63,11.28.71.24,15.38-14.4.49.48L24.16,136.11l.15.68h9.93Z"/><path class="cls-1" d="M147.25,61.26h-9.82l-.32.68,14.54,15.51-.46.49-15.4-14.45-.69.16q-.32,5.64-.61,11.26l-.53,0V63.65l-.7-.26L117.63,78l-.49-.51L131.75,62l-.13-.68H121.37v-1h10.18l.28-.75L117.19,44l.49-.5L133.16,58l.71-.26V46.44h.6l.63,11.28.71.24,15.38-14.4.49.47L137.16,59.46l.15.68h9.93Z"/><path class="cls-1" d="M297.41,23.2h-9.83l-.32.68,14.55,15.51-.46.49L285.94,25.43l-.69.17c-.2,3.75-.41,7.5-.61,11.26h-.52V25.59l-.71-.25L267.78,40l-.49-.5L281.9,23.94l-.12-.67H271.52v-1h10.17l.28-.75L267.34,6l.49-.5,15.48,14.47.71-.27V8.38h.61l.62,11.28.72.23,15.38-14.4.48.48L287.31,21.41l.15.68h9.93Z"/><path class="cls-1" d="M313.48,214.37h-9.82l-.32.68,14.54,15.51-.46.49L302,216.6l-.69.16q-.31,5.64-.61,11.26l-.53,0V216.76l-.7-.26-15.63,14.62-.49-.51L298,215.11l-.13-.68H287.6v-1h10.18l.28-.75-14.63-15.55.49-.5,15.48,14.47.71-.26V199.55h.6l.63,11.28.71.24,15.38-14.4.49.47-14.52,15.44.15.68h9.93Z"/><path class="cls-1" d="M73.93,227.08l-9.56-11.19-.85.27-1.31,15h-.52l-1.26-14.83-1-.3-9,10.38L50,226l6.35-10.41-.43-.73L44,217.56l-.27-.7,13.53-5.6.05-1-14.42-6,.18-.55,12.71,2.92.48-.74-6.39-10.47.47-.42,9,10.5,1-.18q.63-7.51,1.28-15h.51l1.31,15,.82.29,8.81-10.24.59.42-6.07,9.93.44.89,12.33-2.79.2.55-14,5.81-.17,1,15.12,6.32-.14.45-13.28-3.07-.61.66,6.83,11.31Z"/><path class="cls-1" d="M358,82.66l-9.57-11.19-.85.27-1.31,15h-.52l-1.26-14.83-1-.31q-4.5,5.2-9,10.39l-.49-.38,6.35-10.42-.43-.72-11.85,2.71-.27-.7,13.53-5.6.05-1-14.41-6,.18-.55,12.7,2.92.49-.74L334,51l.47-.43q4.51,5.25,9,10.51l1-.18q.64-7.51,1.28-15h.51l1.31,15,.83.3q4.4-5.13,8.81-10.24l.58.42-6.07,9.93.44.89,12.33-2.8.2.56-14,5.81-.16,1,15.11,6.33-.14.45-13.27-3.07-.61.65,6.82,11.32Z"/><path class="cls-1" d="M31,74,21.43,62.78l-.85.27-1.3,15h-.53L17.49,63.18l-.95-.3-9,10.38L7,72.88l6.35-10.41L13,61.74,1.1,64.45l-.27-.7,13.53-5.6.05-1L0,51.15l.18-.55,12.7,2.92.49-.74L7,42.31l.47-.43,9,10.51,1-.18,1.29-15h.5l1.32,15.05.82.29,8.81-10.24.59.42-6.08,9.93.44.89,12.33-2.8.2.56-14,5.81-.17,1,15.12,6.32-.15.45L25.26,61.77l-.61.66,6.82,11.31Z"/><path class="cls-1" d="M242.35,77.14,232.78,66l-.85.26-1.3,15-.53,0-1.26-14.83-1-.31-9,10.38-.49-.38,6.35-10.41-.43-.73-11.85,2.71-.27-.7,13.53-5.59,0-1-14.41-6,.18-.54,12.7,2.92.49-.74-6.4-10.48.47-.42q4.52,5.25,9,10.51l1-.18q.65-7.51,1.28-15h.51l1.32,15,.82.3q4.4-5.13,8.81-10.25l.58.42q-3,5-6.07,9.94l.44.88,12.33-2.79.2.56-14,5.8-.17,1L250,67.57l-.14.45-13.27-3.08-.61.66,6.82,11.31Z"/><path class="cls-1" d="M197.14,348.15,187.57,337l-.85.27-1.3,14.95h-.53l-1.26-14.83-.95-.31-9,10.39-.49-.38,6.35-10.42-.43-.72-11.85,2.71-.27-.7,13.53-5.6.05-1-14.41-6,.18-.55L179,327.7l.49-.74-6.4-10.47.47-.43,9,10.51,1-.18,1.29-15h.5l1.32,15,.82.3,8.81-10.24.59.42-6.08,9.93.44.89,12.33-2.8.2.56-14,5.81-.17,1,15.12,6.33-.15.45L191.4,336l-.61.65,6.82,11.32Z"/><path class="cls-1" d="M99.52,274.36,117.26,272l-3.08-4.75.39-.42,4.8,3.13c.8-6.22,1.54-12,2.28-17.84h1.22c.74,5.79,1.47,11.59,2.26,17.85l5.2-3.49.34.27L127.26,272l17.88,2.35,0,1.12-17.91,2.3,3.41,5.2-.29.34-5.21-3.43c-.79,6.19-1.52,11.92-2.25,17.66h-.85c-1.93-5.53-1.59-11.48-2.67-17.7l-5.07,3.42-.39-.28,3.39-5.21-17.7-2.25Z"/><path class="cls-1" d="M323.55,142.39,341.29,140l-3.09-4.75.39-.42,4.8,3.13c.8-6.23,1.55-12,2.29-17.84h1.22L349.15,138l5.2-3.49.35.27L351.28,140l17.88,2.35,0,1.12-17.91,2.3,3.41,5.2-.29.34-5.21-3.43-2.25,17.65h-.85c-1.92-5.53-1.58-11.48-2.67-17.7l-5.07,3.42L338,151l3.38-5.2-17.7-2.25Z"/><path class="cls-1" d="M224.18,274.36,241.92,272l-3.09-4.75.39-.42L244,270c.79-6.22,1.54-12,2.28-17.84h1.22L249.78,270l5.2-3.49.35.27L251.91,272l17.89,2.35,0,1.12-17.92,2.3,3.41,5.2-.29.34-5.21-3.43c-.79,6.19-1.52,11.92-2.25,17.66h-.85c-1.92-5.53-1.58-11.48-2.67-17.7L239,283.25l-.38-.28,3.38-5.21-17.7-2.25Z"/><path class="cls-1" d="M165,105.31,182.76,103l-3.09-4.75.4-.42,4.8,3.13c.79-6.23,1.54-12,2.28-17.84h1.22c.73,5.8,1.46,11.59,2.26,17.86l5.19-3.49.35.27L192.75,103l17.89,2.35,0,1.12-17.92,2.3,3.42,5.2-.29.34-5.21-3.43c-.79,6.19-1.52,11.92-2.26,17.65h-.84c-1.93-5.53-1.59-11.48-2.67-17.7l-5.07,3.42-.39-.29,3.38-5.2-17.7-2.25Z"/><path class="cls-1" d="M51.41,22.23l17.73-2.34-3.08-4.76.39-.41,4.8,3.13c.8-6.23,1.54-12,2.29-17.84h1.22L77,17.86l5.2-3.49.34.26-3.41,5.24L97,22.23l0,1.12L79.13,25.64l3.41,5.21-.29.34L77,27.75c-.79,6.19-1.52,11.93-2.25,17.66h-.85c-1.92-5.53-1.59-11.48-2.67-17.7L66.2,31.13l-.38-.29,3.38-5.2L51.5,23.38Z"/><polygon class="cls-2" points="189.7 332.25 125.13 269.98 66.49 211.18 22.78 140.13 20.58 63.05 71.27 27.71 133.26 63.39 182.76 102.96 234.91 61.24 287.26 23.88 350.59 66.75 341.34 145.79 302.04 211.06 249.78 269.98 189.7 332.25"/></g></g></svg>