<svg xmlns="http://www.w3.org/2000/svg" viewBox="0 0 68.92 54.29"><defs><style>.cls-1{fill:#fff;}</style></defs><title>matchingButton</title><g id="Layer_2" data-name="Layer 2"><g id="Layer_1-2" data-name="Layer 1"><path class="cls-1" d="M59.14,26.19c-.32,6.21-2.73,11.17-8.58,14-6.14,3-13.11.71-17-4.88A16.37,16.37,0,0,1,36,14c7.17-6.55,18.47-3.41,22.09,6.14A15.53,15.53,0,0,1,59.14,26.19Z"/><path class="cls-1" d="M45.05,54.28c-7.53,0-15.07,0-22.6,0-.89,0-1.55,0-1.4-1.22.42-3.46,1.12-6.8,3.32-9.65A10,10,0,0,1,27,41a4,4,0,0,1,5,0C41,47,50,46.36,58.8,40.74a3.21,3.21,0,0,1,3.7-.21c3.92,2.09,5.65,5.55,6.29,9.73a1.62,1.62,0,0,1,0,.31c.29,3.71.29,3.71-3.51,3.71Z"/><path class="cls-1" d="M9.74,26.3C9.74,19,13.9,13,20.19,11.15A12.89,12.89,0,0,1,30.87,12.6c.7.42,1,.72.39,1.54-4.75,6.7-5.23,13.78-1.73,21.15.33.7.27,1-.52,1.17a12.56,12.56,0,0,0-6.82,4.2c-.76.9-1.53.5-2.26.24-5.36-1.91-8.52-5.79-9.86-11.25A10.82,10.82,0,0,1,9.74,26.3Z"/><path class="cls-1" d="M8.66,54.28H1.15c-.59,0-1.22.06-1.14-.83.45-4.9,1.5-9.51,6-12.45,1.62-1.06,3.08-1.49,4.87,0a17.37,17.37,0,0,0,7.47,3.45c.9.21,1.06.59.73,1.4a22.62,22.62,0,0,0-1.49,7.31c-.06.95-.47,1.1-1.27,1.09C13.78,54.26,11.22,54.28,8.66,54.28Z"/><path class="cls-1" d="M33.3,1.83c2.13-2.36,3.83-2.31,5.44,0a2.51,2.51,0,0,1,.14,2.94c-1.19,2-3.13,3-5.1,4a.67.67,0,0,1-.3.1c-1.6.09-5.73-3.51-5.87-5.12C27.48,2.31,28.39,1,30,.24,31.39-.42,32.18.41,33,1.29A2.88,2.88,0,0,1,33.3,1.83Z"/></g></g></svg>