<svg xmlns="http://www.w3.org/2000/svg" viewBox="0 0 47.9 43.71"><defs><style>.cls-1{fill:#fff;}</style></defs><title>profileButton</title><g id="Layer_2" data-name="Layer 2"><g id="Layer_1-2" data-name="Layer 1"><path class="cls-1" d="M38.11,15.61c-.31,6.22-2.72,11.17-8.58,14-6.13,3-13.11.71-17-4.88A16.38,16.38,0,0,1,15,3.46C22.16-3.09,33.46.05,37.08,9.6A15.53,15.53,0,0,1,38.11,15.61Z"/><path class="cls-1" d="M24,43.7c-7.53,0-15.06,0-22.6,0-.89,0-1.54,0-1.4-1.22.42-3.46,1.13-6.8,3.32-9.65A10,10,0,0,1,6,30.45a4,4,0,0,1,5,.05c8.9,6,17.93,5.28,26.73-.34a3.2,3.2,0,0,1,3.7-.2c3.92,2.08,5.65,5.54,6.3,9.72,0,.1,0,.21,0,.31.29,3.71.29,3.71-3.52,3.71Z"/></g></g></svg>