<svg xmlns="http://www.w3.org/2000/svg" viewBox="0 0 51.67 52.4"><defs><style>.cls-1{fill:#fff;stroke:#a9a9a9;stroke-miterlimit:10;stroke-width:11px;}.cls-2{fill:#a9a9a9;}</style></defs><title>Asset 2</title><g id="Layer_2" data-name="Layer 2"><g id="Layer_1-2" data-name="Layer 1"><circle class="cls-1" cx="25.67" cy="26.04" r="14.94"/><path class="cls-2" d="M31.74,0H20.37a.86.86,0,0,0-.84,1.05l1.6,7.43a.86.86,0,0,0,.84.68h7.41a.87.87,0,0,0,.84-.69l1.59-7.43A.87.87,0,0,0,31,0H19.59"/><path class="cls-2" d="M19.6,52.4,31,52.34a.86.86,0,0,0,.84-1.05l-1.63-7.42a.87.87,0,0,0-.85-.68l-7.4,0a.89.89,0,0,0-.85.69l-1.55,7.44a.87.87,0,0,0,.85,1l11.37-.06"/><path class="cls-2" d="M51.67,32.11l-.1-11.37a.86.86,0,0,0-1-.83L43.1,21.56a.88.88,0,0,0-.68.85l.07,7.41a.87.87,0,0,0,.69.84l7.45,1.52a.86.86,0,0,0,1-.85L51.57,20"/><path class="cls-2" d="M0,20.52.08,31.89a.86.86,0,0,0,1,.84l7.42-1.65a.86.86,0,0,0,.68-.85l-.05-7.4A.86.86,0,0,0,8.49,22L1.05,20.45a.86.86,0,0,0-1,.85L.08,32.67"/><path class="cls-2" d="M11.05,3.09,3.56,11.64A.87.87,0,0,0,3.79,13l6.64,3.7a.86.86,0,0,0,1.07-.19l4.88-5.57a.85.85,0,0,0,0-1.08l-4.54-6.1a.86.86,0,0,0-1.34,0L3.05,12.23"/><path class="cls-2" d="M3,40.74l8.44,7.61a.86.86,0,0,0,1.33-.21l3.8-6.59a.87.87,0,0,0-.17-1.07l-5.5-5a.89.89,0,0,0-1.09-.06L3.63,39.92a.86.86,0,0,0-.07,1.34L12,48.87"/><path class="cls-2" d="M41.09,48.19l7.6-8.46a.86.86,0,0,0-.22-1.33l-6.59-3.78a.88.88,0,0,0-1.08.17L35.86,40.3a.87.87,0,0,0-.06,1.09l4.47,6.15a.88.88,0,0,0,1.35.07l7.59-8.46"/><path class="cls-2" d="M48.58,11.43l-8.3-7.77A.87.87,0,0,0,39,3.85L35,10.37a.85.85,0,0,0,.15,1.07l5.4,5.06a.87.87,0,0,0,1.09.08l6.24-4.34A.87.87,0,0,0,48,10.9l-8.3-7.77"/></g></g></svg>